<svg xmlns="http://www.w3.org/2000/svg" width="800" height="650" viewBox="0 0 800 650">
  <defs>
    <linearGradient id="bg" x1="0" y1="0" x2="1" y2="1">
      <stop offset="0" stop-color="#fdf1f3"/>
      <stop offset="0.55" stop-color="#f9dde2"/>
      <stop offset="1" stop-color="#f1bfc9"/>
    </linearGradient>
  </defs>
  <rect width="800" height="650" fill="url(#bg)"/>
  <g fill="none" stroke="#c66f82" stroke-width="3" opacity="0.5" stroke-linecap="round">
    <path d="M 40 610 C 120 520, 70 440, 160 415"/>
    <path d="M 760 40 C 680 130, 730 210, 640 235"/>
  </g>
  <g fill="#c66f82" opacity="0.55">
    <circle cx="160" cy="415" r="9"/>
    <circle cx="124" cy="464" r="6"/>
    <circle cx="640" cy="235" r="9"/>
    <circle cx="676" cy="186" r="6"/>
  </g>
  <path d="M 400 285 c -16 -14 -38 -4 -38 16 0 18 20 29 38 45 18 -16 38 -27 38 -45 0 -20 -22 -30 -38 -16 z" fill="#b01935" opacity="0.85"/>
  <text x="400" y="389" font-family="Georgia, 'Times New Roman', serif" font-size="42" fill="#8a4757" text-anchor="middle">Ảnh cưới 04</text>
  <text x="400" y="431" font-family="Georgia, serif" font-size="21" fill="#b58a94" text-anchor="middle">800 × 650 — thay tại /public/images</text>
</svg>
