<svg xmlns="http://www.w3.org/2000/svg" viewBox="0 0 600 660">
  <rect width="600" height="660" rx="24" fill="#ffffff"/>
  <rect x="20" y="20" width="560" height="560" rx="16" fill="#fdf1f3"/>
  <g fill="#5f0a1d"><rect x="90" y="90" width="19" height="19" rx="3"/><rect x="190" y="90" width="19" height="19" rx="3"/><rect x="290" y="90" width="19" height="19" rx="3"/><rect x="390" y="90" width="19" height="19" rx="3"/><rect x="490" y="90" width="19" height="19" rx="3"/><rect x="140" y="140" width="19" height="19" rx="3"/><rect x="240" y="140" width="19" height="19" rx="3"/><rect x="340" y="140" width="19" height="19" rx="3"/><rect x="440" y="140" width="19" height="19" rx="3"/><rect x="90" y="190" width="19" height="19" rx="3"/><rect x="190" y="190" width="19" height="19" rx="3"/><rect x="290" y="190" width="19" height="19" rx="3"/><rect x="390" y="190" width="19" height="19" rx="3"/><rect x="490" y="190" width="19" height="19" rx="3"/><rect x="140" y="240" width="19" height="19" rx="3"/><rect x="240" y="240" width="19" height="19" rx="3"/><rect x="340" y="240" width="19" height="19" rx="3"/><rect x="440" y="240" width="19" height="19" rx="3"/><rect x="90" y="290" width="19" height="19" rx="3"/><rect x="190" y="290" width="19" height="19" rx="3"/><rect x="290" y="290" width="19" height="19" rx="3"/><rect x="390" y="290" width="19" height="19" rx="3"/><rect x="490" y="290" width="19" height="19" rx="3"/><rect x="140" y="340" width="19" height="19" rx="3"/><rect x="240" y="340" width="19" height="19" rx="3"/><rect x="340" y="340" width="19" height="19" rx="3"/><rect x="440" y="340" width="19" height="19" rx="3"/><rect x="90" y="390" width="19" height="19" rx="3"/><rect x="190" y="390" width="19" height="19" rx="3"/><rect x="290" y="390" width="19" height="19" rx="3"/><rect x="390" y="390" width="19" height="19" rx="3"/><rect x="490" y="390" width="19" height="19" rx="3"/><rect x="140" y="440" width="19" height="19" rx="3"/><rect x="240" y="440" width="19" height="19" rx="3"/><rect x="340" y="440" width="19" height="19" rx="3"/><rect x="440" y="440" width="19" height="19" rx="3"/><rect x="90" y="490" width="19" height="19" rx="3"/><rect x="190" y="490" width="19" height="19" rx="3"/><rect x="290" y="490" width="19" height="19" rx="3"/><rect x="390" y="490" width="19" height="19" rx="3"/><rect x="490" y="490" width="19" height="19" rx="3"/></g>
  <g fill="#fdf1f3">
    <rect x="70" y="70" width="130" height="130" rx="14"/>
    <rect x="400" y="70" width="130" height="130" rx="14"/>
    <rect x="70" y="400" width="130" height="130" rx="14"/>
  </g>
  <g fill="none" stroke="#5f0a1d" stroke-width="14">
    <rect x="80" y="80" width="110" height="110" rx="14"/>
    <rect x="410" y="80" width="110" height="110" rx="14"/>
    <rect x="80" y="410" width="110" height="110" rx="14"/>
  </g>
  <g fill="#5f0a1d">
    <rect x="115" y="115" width="40" height="40" rx="6"/>
    <rect x="445" y="115" width="40" height="40" rx="6"/>
    <rect x="115" y="445" width="40" height="40" rx="6"/>
  </g>
  <text x="300" y="632" font-family="Georgia, serif" font-size="30" fill="#8a4757" text-anchor="middle">QR Cô Dâu — thay bằng QR thật</text>
</svg>
